<svg xmlns="http://www.w3.org/2000/svg" viewBox="0 0 935.7 600.4"><defs><style>.cls-1{isolation:isolate;}.cls-2,.cls-3{fill:#d2ebf7;}.cls-2{mix-blend-mode:multiply;}.cls-3{opacity:0.08;}</style></defs><title>bg_weather</title><g class="cls-1"><g id="BACKGROUND"><path class="cls-2" d="M0,314s80.2,53.8,198,66c106,11,349,28,443,6.9,205.3-46.1,294.7-54.8,294.7-54.8V600.4L0,599.2V314Z"/><path class="cls-2" d="M0,402.2s122-44,297-46,306,35,578,39c22.8.3,60.7,3.1,60.7,3.1,0,69.3,0,73.3,0,105.2v96.9L0,599.2v-197Z"/><path class="cls-2" d="M935.7,600.4,0,599.2S18,444,293,432c161.7-7.1,115-14,354-79,81.4-22.1,184.6-10.1,288.2,16.9"/><path class="cls-3" d="M0,440.3c23.7,75.6,47,59.8,168.2,56.3,249.4-7.3,297.6,4.9,350.1,6.4,130,3.8,412.9,51.4,416-208.8S934.3,0,934.3,0H0Z"/></g></g></svg>