<svg xmlns="http://www.w3.org/2000/svg" width="511.451" height="362" viewBox="0 0 511.451 362">
  <g id="Group_9" data-name="Group 9" transform="translate(-1018 -76)">
    <path id="Path_43" data-name="Path 43" d="M362.344,21.225c-82.159,0-149,66.841-149,149,0,82.512,67.017,149.039,149.152,149.039,80.808,0,148.848-65.54,148.848-149.039,0-82.158-66.841-149-149-149Z" transform="translate(1018 54.775)" fill="#ffe773"/>
    <path id="Path_44" data-name="Path 44" d="M493.277,99.071l-4.6-8.451-9.406-2.032C354.4,61.617,256.112,194.05,316.742,305.379l4.6,8.451,9.406,2.032a148.538,148.538,0,0,0,125.2-29.728c57.934-46.758,70.5-126.145,37.326-187.063Z" transform="translate(1018 54.775)" fill="#ffec8f"/>
    <path id="Path_45" data-name="Path 45" d="M398.977,193.313C368.221,85.388,231.686,48.171,150.75,128.435,69.908,121.168.008,184.874.008,266.225a137.624,137.624,0,0,0,23.685,77.422,21.127,21.127,0,0,0,1.29,1.7,106.141,106.141,0,0,0,81.365,37.875h309.33a95.778,95.778,0,0,0,95.67-95.67c0-60.908-55.426-104.412-112.371-94.241Z" transform="translate(1018 54.775)" fill="#aefcfe"/>
    <path id="Path_46" data-name="Path 46" d="M240.222,201.134c-22.92-83.1-128.013-94.43-191.6-40.194A138.368,138.368,0,0,0,22.9,342.467a9.761,9.761,0,0,0,2.812,3.741,106.132,106.132,0,0,0,80.635,37.017h74.33v-21c0-21.964,9.487-42,26.714-56.407,30.924-25.868,43.5-65.981,32.83-104.684Z" transform="translate(1018 54.775)" fill="#94f8fa"/>
    <path id="Path_47" data-name="Path 47" d="M503.927,251.111c-22.374-54.172-83.261-72.686-130.509-49.4-37.893,18.679-23.369,76.4,18.959,74.875a53.563,53.563,0,0,1,55.192,60.495,21.115,21.115,0,0,0,11.392,22.2L472.5,365.99l10.687-10.644c27.879-27.768,35.828-67.708,20.741-104.235Z" transform="translate(1018 54.775)" fill="#94f8fa"/>
  </g>
</svg>
