<svg xmlns="http://www.w3.org/2000/svg" width="511.451" height="512.502" viewBox="0 0 511.451 512.502">
  <g id="Group_12" data-name="Group 12" transform="translate(-2079 -853)">
    <g id="Group_6" data-name="Group 6" transform="translate(2078.475 853.001)">
      <path id="Path_48" data-name="Path 48" d="M117.54,448.174a21.018,21.018,0,0,1-19.925-27.646l10.667-32a21,21,0,1,1,39.845,13.281l-10.667,32a21.012,21.012,0,0,1-19.92,14.365Z" fill="#f1ebeb"/>
      <path id="Path_49" data-name="Path 49" d="M245.54,448.174a21.018,21.018,0,0,1-19.925-27.646l10.667-32a21,21,0,1,1,39.845,13.281l-10.667,32a21.012,21.012,0,0,1-19.92,14.365Z" fill="#f1ebeb"/>
      <path id="Path_50" data-name="Path 50" d="M373.539,448.174a21.018,21.018,0,0,1-19.925-27.647l10.667-32a21,21,0,1,1,39.844,13.282l-10.667,32a21.009,21.009,0,0,1-19.919,14.365Z" fill="#f1ebeb"/>
      <circle id="Ellipse_13" data-name="Ellipse 13" cx="21.333" cy="21.333" r="21.333" transform="translate(138.87 469.835)" fill="#f1ebeb"/>
      <circle id="Ellipse_14" data-name="Ellipse 14" cx="21.333" cy="21.333" r="21.333" transform="translate(266.87 469.835)" fill="#f1ebeb"/>
      <path id="Path_51" data-name="Path 51" d="M504.5,230.535c-50.434-43.005-49.954-120.395,0-162.991a21.008,21.008,0,0,0,.005-31.955C421.1-35.571,292.068,5.4,264,110.367A149,149,0,0,0,504.506,262.488,21.008,21.008,0,0,0,504.5,230.535Z" fill="#f1ebeb"/>
    </g>
    <path id="Path_52" data-name="Path 52" d="M399.5,215.589C368.746,107.664,232.211,70.448,151.275,150.712,70.434,143.444.533,207.15.533,288.5a137.624,137.624,0,0,0,23.685,77.422,21.127,21.127,0,0,0,1.29,1.7A106.141,106.141,0,0,0,106.873,405.5H416.2a95.778,95.778,0,0,0,95.67-95.67c0-60.908-55.425-104.412-112.371-94.241Z" transform="translate(2078.475 853.001)" fill="#aefcfe"/>
    <path id="Path_53" data-name="Path 53" d="M240.747,223.41c-22.92-83.1-128.013-94.43-191.6-40.194A138.368,138.368,0,0,0,23.426,364.743a9.761,9.761,0,0,0,2.812,3.741A106.132,106.132,0,0,0,106.873,405.5H181.2v-21c0-21.964,9.487-42,26.714-56.407,30.925-25.868,43.505-65.981,32.83-104.684Z" transform="translate(2078.475 853.001)" fill="#94f8fa"/>
    <path id="Path_54" data-name="Path 54" d="M504.452,273.388c-22.374-54.172-83.261-72.686-130.509-49.4-37.893,18.679-23.369,76.4,18.959,74.875a53.563,53.563,0,0,1,55.192,60.495,21.115,21.115,0,0,0,11.392,22.2l13.538,6.707,10.687-10.644C511.591,349.854,519.539,309.914,504.452,273.388Z" transform="translate(2078.475 853.001)" fill="#94f8fa"/>
  </g>
</svg>
