<svg xmlns="http://www.w3.org/2000/svg" width="511.969" height="401.284" viewBox="0 0 511.969 401.284">
  <g id="clouds" transform="translate(0.011 -55.354)">
    <path id="Path_1426" data-name="Path 1426" d="M155.968,187.07h38.254a112.378,112.378,0,0,1,68.024-54.357,39.413,39.413,0,0,0-48.209-22.6c.02-.6.046-1.195.046-1.8A52.957,52.957,0,0,0,109.481,96.6a31.787,31.787,0,0,0-36.2,12.069,39.839,39.839,0,1,0-10.019,78.4h63.687" fill="#9fdef7"/>
    <path id="Path_1427" data-name="Path 1427" d="M373.536,162.958a112.142,112.142,0,0,0-191.3,51.762,67.279,67.279,0,0,0-76.659,25.556A84.368,84.368,0,1,0,84.358,406.3h93.011a52.245,52.245,0,0,1,67.839-49.476c-.023-.79-.059-1.582-.059-2.382A70.225,70.225,0,0,1,383.86,338.906a42.126,42.126,0,0,1,48,16,52.884,52.884,0,0,1,58.58,23.954,83.409,83.409,0,0,0-86.79-135.521c.041-1.263.1-2.529.1-3.8a111.644,111.644,0,0,0-12.85-52.166" fill="#beeafc"/>
    <path id="Path_1428" data-name="Path 1428" d="M89.442,237.74q-2.523-.153-5.084-.157a84.359,84.359,0,0,0,0,168.719h93.011a51.981,51.981,0,0,1,6.464-24.823A261.8,261.8,0,0,1,89.442,237.74Z" fill="#aee4ff"/>
    <path id="Path_1429" data-name="Path 1429" d="M81.614,174.026a261.487,261.487,0,0,1,12-78.528A31.789,31.789,0,0,0,73.28,108.669a39.839,39.839,0,1,0-10.019,78.4H81.939Q81.621,180.586,81.614,174.026Z" fill="#83d4ed"/>
    <path id="Path_1430" data-name="Path 1430" d="M445.146,350.991a52.882,52.882,0,0,0-13.284,1.688,42.126,42.126,0,0,0-48-16A70.225,70.225,0,0,0,245.15,352.213c0,.8.035,1.592.059,2.382a52.218,52.218,0,1,0-15.633,102.044H445.148a52.824,52.824,0,1,0,0-105.648Z" fill="#e4f2f9"/>
    <path id="Path_1431" data-name="Path 1431" d="M285.258,337.525a130.136,130.136,0,0,1,11.185-52.941,70.245,70.245,0,0,0-51.3,67.627c0,.8.035,1.592.059,2.382a52.218,52.218,0,1,0-15.633,102.044H362.251a130.607,130.607,0,0,1-76.993-119.112Z" fill="#d7edf9"/>
  </g>
</svg>
