<svg xmlns="http://www.w3.org/2000/svg" width="511.421" height="511.336" viewBox="0 0 511.421 511.336">
  <g id="snowflake" transform="translate(0 -0.042)">
    <g id="Group_8" data-name="Group 8">
      <path id="Path_59" data-name="Path 59" d="M285.774,4.243l-30.067,22.55L225.64,4.243a21,21,0,0,0-25.2,33.6l34.267,25.7v64.166a21,21,0,1,0,42,0V63.544l34.267-25.7a21,21,0,0,0-25.2-33.6Z" fill="#94f8fa"/>
      <path id="Path_60" data-name="Path 60" d="M127.707,276.71a21,21,0,0,0,0-42H63.54l-25.7-34.267a21,21,0,1,0-33.6,25.2l22.55,30.066L4.24,285.777c-10.5,14-.215,33.6,16.783,33.6a20.968,20.968,0,0,0,16.816-8.4l25.7-34.267h64.168Z" fill="#94f8fa"/>
      <path id="Path_61" data-name="Path 61" d="M310.973,473.576l-34.267-25.7V383.71a21,21,0,0,0-42,0v64.167l-34.267,25.7a21,21,0,0,0,25.2,33.6l30.067-22.55,30.067,22.55a21,21,0,0,0,25.2-33.6Z" fill="#94f8fa"/>
      <path id="Path_62" data-name="Path 62" d="M484.624,255.71l22.55-30.066a21,21,0,1,0-33.6-25.2l-25.7,34.267H383.708a21,21,0,1,0,0,42h64.167l25.7,34.267a20.967,20.967,0,0,0,16.816,8.4c16.972,0,27.309-19.567,16.783-33.6Z" fill="#94f8fa"/>
      <path id="Path_63" data-name="Path 63" d="M341.04,191.377a20.94,20.94,0,0,0,14.85-6.151l32.875-32.875c43.543,17.418,42.847,17.7,48.269,17.7a21,21,0,0,0,7.806-40.5l-23.763-9.5,20.148-20.148a21,21,0,0,0-29.7-29.7L391.379,90.342l-9.505-23.764a21,21,0,0,0-39,15.6l16.19,40.477-32.876,32.875c-13.272,13.271-3.69,35.849,14.848,35.849Z" fill="#94f8fa"/>
      <path id="Path_64" data-name="Path 64" d="M152.347,122.652l16.19-40.477a21,21,0,0,0-39-15.6l-9.5,23.764L99.889,70.2a21,21,0,0,0-29.7,29.7l20.148,20.148-23.763,9.5a21,21,0,1,0,15.6,39l40.476-16.191,32.875,32.875a21,21,0,0,0,29.7-29.7Z" fill="#94f8fa"/>
      <path id="Path_65" data-name="Path 65" d="M155.524,326.2,122.649,359.07,82.173,342.879a21,21,0,1,0-15.6,39l23.763,9.505L70.19,411.528C56.919,424.8,66.5,447.377,85.04,447.377a20.94,20.94,0,0,0,14.85-6.151l20.147-20.147,9.505,23.764a21,21,0,1,0,39-15.6l-16.19-40.477,32.876-32.875a21,21,0,0,0-29.7-29.7Z" fill="#94f8fa"/>
      <path id="Path_66" data-name="Path 66" d="M429.24,342.879,388.764,359.07,355.889,326.2a21,21,0,0,0-29.7,29.7l32.876,32.875-16.19,40.477a21,21,0,1,0,39,15.6l9.505-23.764,20.147,20.147a20.936,20.936,0,0,0,14.85,6.151c18.55,0,28.108-22.59,14.85-35.849l-20.148-20.148,23.763-9.505a21,21,0,1,0-15.6-38.995Z" fill="#94f8fa"/>
    </g>
    <path id="Path_67" data-name="Path 67" d="M392.7,248.337,360.7,163a21,21,0,0,0-12.289-12.29l-85.333-32a21.011,21.011,0,0,0-14.748,0l-85.333,32A21,21,0,0,0,150.711,163l-32,85.333a21.008,21.008,0,0,0,0,14.747l32,85.333A21,21,0,0,0,163,360.707c92.118,34.544,87.273,33.337,92.707,33.337,5.343,0,.281,1.323,92.707-33.337a21,21,0,0,0,12.289-12.29l32-85.333a21.008,21.008,0,0,0,0-14.747Z" fill="#aefcfe"/>
    <circle id="Ellipse_15" data-name="Ellipse 15" cx="21.333" cy="21.333" r="21.333" transform="translate(234.374 234.377)" fill="#94f8fa"/>
  </g>
</svg>
