<svg xmlns="http://www.w3.org/2000/svg" xmlns:xlink="http://www.w3.org/1999/xlink" width="509.669" height="512.011" viewBox="0 0 509.669 512.011">
  <defs>
    <clipPath id="clip-path">
      <rect width="509.669" height="512.011" fill="none"/>
    </clipPath>
  </defs>
  <g id="Group_734" data-name="Group 734" clip-path="url(#clip-path)">
    <g id="Group_734-2" data-name="Group 734" transform="translate(1391.921 -8606.991)">
      <path id="Path_1378" data-name="Path 1378" d="M435.754,131.359A139.961,139.961,0,0,0,165,90.84a94.528,94.528,0,1,0,1.16,189.053l267,0a74.282,74.282,0,1,0,2.6-148.542Zm0,0" transform="translate(-1391 8607)" fill="#9fdef7"/>
      <path id="Path_1379" data-name="Path 1379" d="M507.457,205.59a74.307,74.307,0,0,1-74.291,74.3H427.4a74.3,74.3,0,0,0-63.267-108.64A140.063,140.063,0,0,0,195.211,42.95a139.938,139.938,0,0,1,240.547,88.418A74.267,74.267,0,0,1,507.457,205.59Zm0,0" transform="translate(-1391 8607)" fill="#83d4ed"/>
      <path id="Path_1380" data-name="Path 1380" d="M398.711,122.9a7.728,7.728,0,0,1-7.508-5.922,96.857,96.857,0,0,0-5.277-15.816,7.725,7.725,0,1,1,14.18-6.137,112.42,112.42,0,0,1,6.121,18.34,7.73,7.73,0,0,1-7.516,9.535Zm0,0" transform="translate(-1391 8607)" fill="#e4f2f9"/>
      <path id="Path_1381" data-name="Path 1381" d="M372.27,74.645a7.7,7.7,0,0,1-5.574-2.379,97.072,97.072,0,0,0-70.617-30.16,7.727,7.727,0,1,1,0-15.454,112.39,112.39,0,0,1,81.766,34.915,7.727,7.727,0,0,1-5.574,13.078Zm0,0" transform="translate(-1391 8607)" fill="#e4f2f9"/>
      <path id="Path_1382" data-name="Path 1382" d="M51.262,173.7a100.058,100.058,0,0,1,193.563-28.969A67.581,67.581,0,1,1,244,279.891H53.117a53.107,53.107,0,1,1-1.855-106.2Zm0,0" transform="translate(-1391 8607)" fill="#e4f2f9"/>
      <path id="Path_1383" data-name="Path 1383" d="M311.586,212.3a67.583,67.583,0,0,1-66.647,67.57A67.568,67.568,0,0,0,195.977,166.6,100.157,100.157,0,0,0,87.348,102.766a100.054,100.054,0,0,1,157.477,41.973A67.57,67.57,0,0,1,311.586,212.3Zm0,0" transform="translate(-1391 8607)" fill="#beeafc"/>
      <path id="Path_1384" data-name="Path 1384" d="M108.18,350.652a21.105,21.105,0,1,1-42.211,0c0-7.648,9.09-22.664,15.336-32.082a6.923,6.923,0,0,1,11.535,0C99.09,327.988,108.18,343,108.18,350.652Zm0,0" transform="translate(-1391 8607)" fill="#a0ecff"/>
      <path id="Path_1385" data-name="Path 1385" d="M108.176,350.652a21.107,21.107,0,0,1-29.34,19.434,21.1,21.1,0,0,0,12.871-19.434c0-6.687-6.945-19-12.863-28.289.844-1.332,1.672-2.6,2.453-3.781a6.923,6.923,0,0,1,11.543-.012C99.09,327.988,108.176,343,108.176,350.652Zm0,0" transform="translate(-1391 8607)" fill="#60daff"/>
      <path id="Path_1386" data-name="Path 1386" d="M203.41,350.652a21.105,21.105,0,0,1-42.211,0c0-7.648,9.09-22.664,15.336-32.082a6.923,6.923,0,0,1,11.535,0C194.32,327.988,203.41,343,203.41,350.652Zm0,0" transform="translate(-1391 8607)" fill="#a0ecff"/>
      <path id="Path_1387" data-name="Path 1387" d="M203.406,350.652a21.107,21.107,0,0,1-29.34,19.434,21.1,21.1,0,0,0,12.871-19.434c0-6.687-6.945-19-12.863-28.289.848-1.332,1.672-2.6,2.453-3.781a6.923,6.923,0,0,1,11.543-.012C194.32,327.988,203.406,343,203.406,350.652Zm0,0" transform="translate(-1391 8607)" fill="#60daff"/>
      <path id="Path_1388" data-name="Path 1388" d="M298.641,350.652a21.105,21.105,0,1,1-42.211,0c0-7.648,9.09-22.664,15.34-32.082a6.919,6.919,0,0,1,11.531,0C289.555,327.988,298.641,343,298.641,350.652Zm0,0" transform="translate(-1391 8607)" fill="#a0ecff"/>
      <path id="Path_1389" data-name="Path 1389" d="M298.641,350.652A21.11,21.11,0,0,1,269.3,370.086a21.1,21.1,0,0,0,12.871-19.434c0-6.687-6.945-19-12.863-28.289.848-1.332,1.672-2.6,2.457-3.781a6.923,6.923,0,0,1,11.543-.012C289.551,327.988,298.641,343,298.641,350.652Zm0,0" transform="translate(-1391 8607)" fill="#60daff"/>
      <path id="Path_1390" data-name="Path 1390" d="M393.871,350.652a21.105,21.105,0,0,1-42.211,0c0-7.648,9.09-22.664,15.34-32.082a6.919,6.919,0,0,1,11.531,0C384.785,327.988,393.871,343,393.871,350.652Zm0,0" transform="translate(-1391 8607)" fill="#a0ecff"/>
      <path id="Path_1391" data-name="Path 1391" d="M393.871,350.652a21.11,21.11,0,0,1-29.344,19.434A21.094,21.094,0,0,0,377.4,350.652c0-6.687-6.945-19-12.863-28.289.848-1.332,1.676-2.6,2.457-3.781a6.923,6.923,0,0,1,11.543-.012C384.781,327.988,393.871,343,393.871,350.652Zm0,0" transform="translate(-1391 8607)" fill="#60daff"/>
      <path id="Path_1392" data-name="Path 1392" d="M108.18,490.895a21.105,21.105,0,1,1-42.211,0c0-7.648,9.09-22.66,15.336-32.078a6.919,6.919,0,0,1,11.535,0C99.09,468.234,108.18,483.246,108.18,490.895Zm0,0" transform="translate(-1391 8607)" fill="#a0ecff"/>
      <path id="Path_1393" data-name="Path 1393" d="M108.176,490.9a21.115,21.115,0,0,1-29.34,19.434A21.106,21.106,0,0,0,91.707,490.9c0-6.687-6.945-19-12.863-28.289.844-1.328,1.672-2.6,2.453-3.777a6.921,6.921,0,0,1,11.543-.016C99.09,468.234,108.176,483.246,108.176,490.9Zm0,0" transform="translate(-1391 8607)" fill="#60daff"/>
      <path id="Path_1394" data-name="Path 1394" d="M203.41,490.895a21.105,21.105,0,0,1-42.211,0c0-7.648,9.09-22.66,15.336-32.078a6.919,6.919,0,0,1,11.535,0C194.32,468.234,203.41,483.246,203.41,490.895Zm0,0" transform="translate(-1391 8607)" fill="#a0ecff"/>
      <path id="Path_1395" data-name="Path 1395" d="M203.406,490.9a21.115,21.115,0,0,1-29.34,19.434A21.106,21.106,0,0,0,186.937,490.9c0-6.687-6.945-19-12.863-28.289.848-1.328,1.672-2.6,2.453-3.777a6.921,6.921,0,0,1,11.543-.016C194.32,468.234,203.406,483.246,203.406,490.9Zm0,0" transform="translate(-1391 8607)" fill="#60daff"/>
      <path id="Path_1396" data-name="Path 1396" d="M298.641,490.895a21.105,21.105,0,1,1-42.211,0c0-7.648,9.09-22.66,15.34-32.078a6.916,6.916,0,0,1,11.531,0C289.555,468.234,298.641,483.246,298.641,490.895Zm0,0" transform="translate(-1391 8607)" fill="#a0ecff"/>
      <path id="Path_1397" data-name="Path 1397" d="M298.641,490.9A21.118,21.118,0,0,1,269.3,510.332a21.106,21.106,0,0,0,12.871-19.437c0-6.687-6.945-19-12.863-28.289.848-1.328,1.672-2.6,2.457-3.777a6.921,6.921,0,0,1,11.543-.016C289.551,468.234,298.641,483.246,298.641,490.9Zm0,0" transform="translate(-1391 8607)" fill="#60daff"/>
      <path id="Path_1398" data-name="Path 1398" d="M393.871,490.895a21.105,21.105,0,0,1-42.211,0c0-7.648,9.09-22.66,15.34-32.078a6.916,6.916,0,0,1,11.531,0C384.785,468.234,393.871,483.246,393.871,490.895Zm0,0" transform="translate(-1391 8607)" fill="#a0ecff"/>
      <path id="Path_1399" data-name="Path 1399" d="M393.871,490.9a21.118,21.118,0,0,1-29.344,19.434A21.1,21.1,0,0,0,377.4,490.895c0-6.687-6.945-19-12.863-28.289.848-1.328,1.676-2.6,2.457-3.777a6.921,6.921,0,0,1,11.543-.016C384.781,468.234,393.871,483.246,393.871,490.9Zm0,0" transform="translate(-1391 8607)" fill="#60daff"/>
      <path id="Path_1400" data-name="Path 1400" d="M155.8,419.961a21.105,21.105,0,0,1-42.211,0c0-7.648,9.09-22.664,15.336-32.082a6.923,6.923,0,0,1,11.535,0C146.707,397.3,155.8,412.313,155.8,419.961Zm0,0" transform="translate(-1391 8607)" fill="#a0ecff"/>
      <path id="Path_1401" data-name="Path 1401" d="M155.793,419.961A21.11,21.11,0,0,1,126.449,439.4a21.094,21.094,0,0,0,12.871-19.434c0-6.687-6.941-19-12.863-28.289.848-1.332,1.676-2.6,2.457-3.781a6.923,6.923,0,0,1,11.543-.012C146.7,397.3,155.793,412.309,155.793,419.961Zm0,0" transform="translate(-1391 8607)" fill="#60daff"/>
      <path id="Path_1402" data-name="Path 1402" d="M251.027,419.961a21.105,21.105,0,0,1-42.211,0c0-7.648,9.09-22.664,15.336-32.082a6.923,6.923,0,0,1,11.535,0C241.938,397.3,251.027,412.313,251.027,419.961Zm0,0" transform="translate(-1391 8607)" fill="#a0ecff"/>
      <path id="Path_1403" data-name="Path 1403" d="M251.023,419.961A21.11,21.11,0,0,1,221.679,439.4a21.094,21.094,0,0,0,12.871-19.434c0-6.687-6.941-19-12.863-28.289.848-1.332,1.676-2.6,2.457-3.781a6.923,6.923,0,0,1,11.543-.012C241.934,397.3,251.023,412.309,251.023,419.961Zm0,0" transform="translate(-1391 8607)" fill="#60daff"/>
      <path id="Path_1404" data-name="Path 1404" d="M346.258,419.961a21.105,21.105,0,0,1-42.211,0c0-7.648,9.09-22.664,15.336-32.082a6.923,6.923,0,0,1,11.535,0C337.168,397.3,346.258,412.313,346.258,419.961Zm0,0" transform="translate(-1391 8607)" fill="#a0ecff"/>
      <path id="Path_1405" data-name="Path 1405" d="M346.254,419.961A21.11,21.11,0,0,1,316.91,439.4a21.094,21.094,0,0,0,12.871-19.434c0-6.687-6.941-19-12.863-28.289.848-1.332,1.676-2.6,2.457-3.781a6.923,6.923,0,0,1,11.543-.012C337.164,397.3,346.254,412.309,346.254,419.961Zm0,0" transform="translate(-1391 8607)" fill="#60daff"/>
      <path id="Path_1406" data-name="Path 1406" d="M441.488,419.961a21.105,21.105,0,1,1-42.211,0c0-7.648,9.09-22.664,15.336-32.082a6.923,6.923,0,0,1,11.535,0C432.4,397.3,441.488,412.313,441.488,419.961Zm0,0" transform="translate(-1391 8607)" fill="#a0ecff"/>
      <path id="Path_1407" data-name="Path 1407" d="M441.484,419.961a21.107,21.107,0,0,1-29.34,19.434,21.1,21.1,0,0,0,12.871-19.434c0-6.687-6.945-19-12.867-28.289.848-1.332,1.676-2.6,2.457-3.781a6.923,6.923,0,0,1,11.543-.012C432.4,397.3,441.484,412.309,441.484,419.961Zm0,0" transform="translate(-1391 8607)" fill="#60daff"/>
    </g>
  </g>
</svg>
