<svg xmlns="http://www.w3.org/2000/svg" width="511.436" height="512" viewBox="0 0 511.436 512">
  <g id="fog" transform="translate(-0.282)">
    <path id="Path_34" data-name="Path 34" d="M511.671,95.5c0,13.3,1.459,27.466-12.27,41.16a42,42,0,0,1-30.09,12.26c-14.6,0-28.74,4.29-42.02,12.75-40.439,25.766-88.758,25.781-129.24,0-26.73-17.03-57.37-17.03-84.09,0-40.48,25.77-88.79,25.77-129.24,0a78.459,78.459,0,0,0-42.05-12.75,41.951,41.951,0,0,1-30.09-12.3C-1.184,122.889.331,108.413.331,95.51c0-22.916,17.843-41.264,41.23-41.83,38.02-1.029,66.445,20.029,72.06,23,22.651,12.025,48.609,12.426,72.71-.69,6.277-3.451,26.14-18.127,56.29-21.52,44.576-4.956,72.462,15.666,83.05,21.52,23.639,12.865,50.242,13.45,75.27-.71,11.363-6.531,33.735-21.89,69.3-21.61,22.148,0,41.43,18.45,41.43,41.83Z" fill="#ece2e2"/>
    <path id="Path_35" data-name="Path 35" d="M511.671,260.5c0,13.3,1.459,27.466-12.27,41.16a41.8,41.8,0,0,1-30.09,12.26c-14.6,0-28.74,4.29-42.02,12.75-40.439,25.767-88.759,25.781-129.24,0-26.73-17.03-57.37-17.03-84.09,0-40.48,25.77-88.79,25.77-129.24,0a78.459,78.459,0,0,0-42.05-12.75,41.951,41.951,0,0,1-30.09-12.3C-1.184,287.889.331,273.413.331,260.51c0-22.916,17.843-41.264,41.23-41.83,38.02-1.029,66.445,20.029,72.06,23,22.651,12.025,48.609,12.426,72.71-.69,6.277-3.451,26.14-18.127,56.29-21.52,44.576-4.956,72.462,15.666,83.05,21.52,23.639,12.865,50.242,13.45,75.27-.71,9.037-5.194,32.537-21.944,69.3-21.61,22.148,0,41.43,18.45,41.43,41.83Z" fill="#ece2e2"/>
    <path id="Path_36" data-name="Path 36" d="M511.671,426.509c0,13.2,1.486,27.429-12.27,41.15a41.8,41.8,0,0,1-30.08,12.26c-14.61,0-28.75,4.29-42.03,12.75-40.448,25.772-88.759,25.771-129.24.01-26.73-17.03-57.37-17.04-84.09-.01-40.48,25.78-88.79,25.77-129.24,0a78.459,78.459,0,0,0-42.05-12.75,41.91,41.91,0,0,1-30.09-12.3C-1.184,453.889.331,439.446.331,426.509c0-23.42,18.555-41.84,42.34-41.84a120.26,120.26,0,0,1,64.62,19.34c26.71,17.01,57.37,17.01,84.1-.01,40.45-25.78,88.77-25.78,129.23,0,26.72,17.02,57.38,17.02,84.1,0a120.285,120.285,0,0,1,65.52-19.33,41.941,41.941,0,0,1,41.43,41.84Z" fill="#ece2e2"/>
    <path id="Path_37" data-name="Path 37" d="M510.251,84.71a21.007,21.007,0,0,1-24.32,12.87c-19.97-4.63-40.25-.88-58.64,10.84-39.654,25.271-88.015,26.248-129.24.01-26.21-16.717-56.923-17.33-84.09-.01-41.182,26.218-89.554,25.3-129.24,0C67.066,97.172,46.577,92.826,26.061,97.58A21.01,21.01,0,0,1,1.721,84.65c4.63-17.7,20.42-30.5,39.84-30.97,19.857-.537,44.106,5.553,65.73,19.33,14.89,9.44,31.807,14.142,49.4,12.353,31.223-3.216,36.736-20.15,73.212-28.673,26.788-6.251,54.61-2.911,81.24,10.82,8.61,4.519,46.563,35.2,93.58,5.49,20.494-13.057,43.628-19.792,67.27-19.28a41.946,41.946,0,0,1,38.26,30.99Z" fill="#f1ebeb"/>
    <path id="Path_38" data-name="Path 38" d="M510.251,249.71a21.007,21.007,0,0,1-24.32,12.87c-19.97-4.63-40.25-.88-58.64,10.84-39.655,25.272-88.021,26.244-129.24.01-26.211-16.717-56.923-17.33-84.09-.01-41.186,26.221-89.559,25.3-129.24,0-17.657-11.25-38.144-15.594-58.66-10.84a21.01,21.01,0,0,1-24.34-12.93c4.63-17.7,20.42-30.5,39.84-30.97,19.857-.537,44.106,5.553,65.73,19.33,14.89,9.44,31.807,14.142,49.4,12.353,31.223-3.216,36.736-20.15,73.212-28.673,26.788-6.251,54.61-2.911,81.24,10.82,8.61,4.519,46.563,35.2,93.58,5.49,20.375-12.981,43.592-19.805,67.27-19.28a41.946,41.946,0,0,1,38.26,30.99Z" fill="#f1ebeb"/>
    <path id="Path_39" data-name="Path 39" d="M510.231,415.669a20.99,20.99,0,0,1-24.3,12.83c-19.97-4.63-40.25-.88-58.64,10.84-40.459,25.771-88.828,25.741-129.24,0-26-16.565-56.716-17.452-84.09,0-40.862,26.015-89.219,25.505-129.24,0-17.657-11.25-38.144-15.594-58.66-10.84a21.027,21.027,0,0,1-24.33-12.9c4.74-18.01,21.03-30.93,40.94-30.93a120.26,120.26,0,0,1,64.62,19.34c26.71,17.01,57.37,17.01,84.1-.01,40.45-25.78,88.77-25.78,129.23,0,26.72,17.02,57.38,17.02,84.1,0a120.285,120.285,0,0,1,65.52-19.33,41.937,41.937,0,0,1,39.99,31Z" fill="#f1ebeb"/>
    <g id="Group_4" data-name="Group 4">
      <circle id="Ellipse_2" data-name="Ellipse 2" cx="21.333" cy="21.333" r="21.333" transform="translate(234.668 469.334)" fill="#aefcfe"/>
      <circle id="Ellipse_3" data-name="Ellipse 3" cx="21.333" cy="21.333" r="21.333" transform="translate(352.002 0)" fill="#aefcfe"/>
      <circle id="Ellipse_4" data-name="Ellipse 4" cx="21.333" cy="21.333" r="21.333" transform="translate(234.668 128)" fill="#aefcfe"/>
      <circle id="Ellipse_5" data-name="Ellipse 5" cx="21.333" cy="21.333" r="21.333" transform="translate(117.335 0)" fill="#aefcfe"/>
      <circle id="Ellipse_6" data-name="Ellipse 6" cx="21.333" cy="21.333" r="21.333" transform="translate(352.002 175.334)" fill="#aefcfe"/>
      <circle id="Ellipse_7" data-name="Ellipse 7" cx="21.333" cy="21.333" r="21.333" transform="translate(117.335 175.334)" fill="#aefcfe"/>
      <circle id="Ellipse_8" data-name="Ellipse 8" cx="21.333" cy="21.333" r="21.333" transform="translate(234.668 293)" fill="#aefcfe"/>
      <circle id="Ellipse_9" data-name="Ellipse 9" cx="21.333" cy="21.333" r="21.333" transform="translate(352.002 341.334)" fill="#aefcfe"/>
      <circle id="Ellipse_10" data-name="Ellipse 10" cx="21.333" cy="21.333" r="21.333" transform="translate(117.335 341.334)" fill="#aefcfe"/>
    </g>
  </g>
</svg>
