<svg xmlns="http://www.w3.org/2000/svg" width="360" height="512" viewBox="0 0 360 512">
  <g id="placeholder" transform="translate(-76)">
    <path id="Path_1432" data-name="Path 1432" d="M256,0C156.7,0,76,80.7,76,180a177.5,177.5,0,0,0,27,94.5L243.8,504.915a14.214,14.214,0,0,0,10.2,6.9,14.933,14.933,0,0,0,15.3-7.2L410.5,272.1A177.525,177.525,0,0,0,436,180C436,80.7,355.3,0,256,0Zm0,270a89.879,89.879,0,0,1-90-90c0-49.5,40.5-90,90-90s90,40.5,90,90A89.685,89.685,0,0,1,256,270Z" fill="#044a8e"/>
    <path id="Path_1433" data-name="Path 1433" d="M256,0V90c49.5,0,90,40.5,90,90a89.685,89.685,0,0,1-90,90V511.991a14.854,14.854,0,0,0,13.3-7.375L410.5,272.1A177.517,177.517,0,0,0,436,180C436,80.7,355.3,0,256,0Z" fill="#012d58"/>
  </g>
</svg>
