<svg xmlns="http://www.w3.org/2000/svg" width="513.206" height="440.998" viewBox="0 0 513.206 440.998">
  <g id="storm" transform="translate(0.004 -0.5)">
    <g id="Group_733" data-name="Group 733">
      <path id="Path_1408" data-name="Path 1408" d="M7.613,374.9a7.613,7.613,0,0,1-5.383-13L136.453,227.684a7.611,7.611,0,0,1,10.766,10.762L12.992,372.672a7.591,7.591,0,0,1-5.379,2.23Zm0,0" fill="#a0ecff"/>
      <path id="Path_1409" data-name="Path 1409" d="M24.059,324.945a7.609,7.609,0,0,1-5.379-12.992l17.156-17.16A7.612,7.612,0,0,1,46.6,305.559l-17.16,17.16a7.589,7.589,0,0,1-5.381,2.226Zm0,0" fill="#a0ecff"/>
      <path id="Path_1410" data-name="Path 1410" d="M57.691,402.2a7.609,7.609,0,0,1-5.383-12.992l17.156-17.156A7.612,7.612,0,0,1,80.23,382.816l-17.156,17.16a7.6,7.6,0,0,1-5.383,2.224Zm0,0" fill="#a0ecff"/>
      <path id="Path_1411" data-name="Path 1411" d="M351.9,374.9a7.613,7.613,0,0,1-5.383-13L480.742,227.684a7.611,7.611,0,0,1,10.766,10.762L357.285,372.672A7.606,7.606,0,0,1,351.9,374.9Zm0,0" fill="#a0ecff"/>
    </g>
    <path id="Path_1412" data-name="Path 1412" d="M255.531,331.2,93.145,439.867A9.061,9.061,0,0,1,81.7,425.93l79.98-79.98H108.508a9.062,9.062,0,0,1-6.408-15.47l85.56-85.55h76.41l-69.684,69.68h56.1a9.063,9.063,0,0,1,5.04,16.59Zm0,0" fill="#f6cb43"/>
    <path id="Path_1413" data-name="Path 1413" d="M255.531,331.2,93.145,439.867a8.785,8.785,0,0,1-12.133-1.895L215.34,330.617H162.059a9.065,9.065,0,0,1-6.41-15.473l70.211-70.219h38.21l-69.687,69.684h56.109a9.063,9.063,0,0,1,5.039,16.591Zm0,0" fill="#fab03c"/>
    <path id="Path_1414" data-name="Path 1414" d="M307.766,358.531a7.609,7.609,0,0,1-5.383-12.992L361.8,286.125a7.613,7.613,0,0,1,10.766,10.766L313.148,356.3a7.6,7.6,0,0,1-5.382,2.231Zm0,0" fill="#a0ecff"/>
    <path id="Path_1415" data-name="Path 1415" d="M263.16,403.141a7.613,7.613,0,0,1-5.383-13l19.023-19.02a7.611,7.611,0,0,1,10.762,10.766L268.543,400.91a7.593,7.593,0,0,1-5.383,2.231Zm0,0" fill="#a0ecff"/>
    <path id="Path_1416" data-name="Path 1416" d="M284.227,307.789a7.613,7.613,0,0,1-5.383-13l58.668-58.664a7.611,7.611,0,1,1,10.766,10.762L289.61,305.555a7.606,7.606,0,0,1-5.383,2.234Zm0,0" fill="#a0ecff"/>
    <path id="Path_1417" data-name="Path 1417" d="M444.785,123.633A131.191,131.191,0,0,0,191,85.648a88.606,88.606,0,1,0,1.086,177.209l250.269,0a69.627,69.627,0,1,0,2.43-139.233Zm0,0" fill="#9fdef7"/>
    <path id="Path_1418" data-name="Path 1418" d="M512,193.211a69.654,69.654,0,0,1-69.641,69.648h-5.4a69.648,69.648,0,0,0-59.3-101.836A131.287,131.287,0,0,0,219.313,40.762,131.169,131.169,0,0,1,444.79,123.637,69.618,69.618,0,0,1,512,193.211Zm0,0" fill="#83d4ed"/>
    <path id="Path_1419" data-name="Path 1419" d="M410.063,116.074a7.618,7.618,0,0,1-7.395-5.836,90.6,90.6,0,0,0-4.926-14.766,7.611,7.611,0,1,1,13.969-6.047,105.6,105.6,0,0,1,5.758,17.254,7.626,7.626,0,0,1-7.406,9.395Zm0,0" fill="#e4f2f9"/>
    <path id="Path_1420" data-name="Path 1420" d="M385.281,70.836a7.579,7.579,0,0,1-5.492-2.34,90.627,90.627,0,0,0-65.93-28.16,7.612,7.612,0,1,1,0-15.223,105.722,105.722,0,0,1,76.91,32.84,7.611,7.611,0,0,1-5.488,12.883Zm0,0" fill="#e4f2f9"/>
    <path id="Path_1421" data-name="Path 1421" d="M84.379,163.324A93.792,93.792,0,0,1,265.82,136.168a63.346,63.346,0,1,1-.777,126.689H86.117a49.777,49.777,0,1,1-1.738-99.539Zm0,0" fill="#e4f2f9"/>
    <path id="Path_1422" data-name="Path 1422" d="M328.4,199.508a63.352,63.352,0,0,1-62.471,63.336,63.335,63.335,0,0,0-45.9-106.18,93.817,93.817,0,0,0-87.84-60.875,94.868,94.868,0,0,0-13.972,1.036,93.786,93.786,0,0,1,147.6,39.347A63.339,63.339,0,0,1,328.4,199.508Zm0,0" fill="#beeafc"/>
    <path id="Path_1423" data-name="Path 1423" d="M328.453,403.141h-.145a7.614,7.614,0,0,1,.035-15.227h.145a7.614,7.614,0,1,1-.035,15.227Zm0,0" fill="#a0ecff"/>
    <path id="Path_1424" data-name="Path 1424" d="M419.066,351.547h-.141a7.611,7.611,0,1,1,.035-15.223h.141a7.612,7.612,0,0,1-.035,15.223Zm0,0" fill="#a0ecff"/>
    <path id="Path_1425" data-name="Path 1425" d="M39.242,420.938h-.1a7.611,7.611,0,1,1,0-15.223h.1a7.611,7.611,0,1,1,0,15.223Zm0,0" fill="#a0ecff"/>
  </g>
</svg>
