<svg xmlns="http://www.w3.org/2000/svg" width="255.34" height="511.408" viewBox="0 0 255.34 511.408">
  <g id="temperature" transform="translate(-128.034)">
    <path id="Path_83" data-name="Path 83" d="M330.034,279.933V74.408A73.847,73.847,0,0,0,308.263,21.84C261.659-24.769,181.374,8.1,181.374,74.408V279.933a127.67,127.67,0,1,0,148.66,0Z" fill="#e06661"/>
    <path id="Path_84" data-name="Path 84" d="M255.7,256.071A127.667,127.667,0,1,0,383.371,383.738,127.811,127.811,0,0,0,255.7,256.071Z" fill="#e57b77"/>
    <path id="Path_85" data-name="Path 85" d="M330.031,170.4v42h-53a21,21,0,0,1,0-42Z" fill="#f2cbb6"/>
    <path id="Path_86" data-name="Path 86" d="M255.7,426.071a42.333,42.333,0,1,1,42.333-42.333A42.38,42.38,0,0,1,255.7,426.071Z" fill="#ffdcc6"/>
  </g>
</svg>
