<svg xmlns="http://www.w3.org/2000/svg" viewBox="0 0 935.7 600.4"><defs><style>.cls-1{isolation:isolate;}.cls-2{fill:#dcedf4;mix-blend-mode:multiply;}.cls-3{fill:#d2ebf7;opacity:0.08;}</style></defs><title>weather_bg</title><g class="cls-1"><g id="BACKGROUND"><path class="cls-2" d="M0,314s80.2,53.8,198,66c106,11,349,28,443,6.9,205.3-46.1,294.7-54.8,294.7-54.8L902,595,0,599.2V314Z"/><path class="cls-2" d="M0,402.2s122-44,297-46,306,35,578,39c22.8.3,60.7,3.1,60.7,3.1,0,69.3,0,73.3,0,105.2v96.9L0,599.2v-197Z"/><path class="cls-2" d="M935.7,600.4,0,599.2S18,444,293,432c161.7-7.1,115-14,354-79,81.4-22.1,184.6-10.1,288.2,16.9"/><path class="cls-3" d="M0,167.6c23.7,28.8,72,55.1,168.2,21.4C336.6,130,427,69,480.4,116s450.8,95,453.9-4,0-112,0-112H0Z"/></g></g></svg>